<svg width="24" height="24" viewBox="0 0 24 24" fill="none" xmlns="http://www.w3.org/2000/svg">
<path d="M3 9.95996C4.10457 9.95996 5 9.06453 5 7.95996C5 6.85539 4.10457 5.95996 3 5.95996C1.89543 5.95996 1 6.85539 1 7.95996C1 9.06453 1.89543 9.95996 3 9.95996Z" fill="#707070"/>
<path d="M2 18H0V13C0 12.4696 0.210743 11.9609 0.585815 11.5858C0.960888 11.2107 1.46957 11 2 11H11V13H2V18Z" fill="#707070"/>
<path d="M5.99023 23.96H3.99023V17.96H2.99023V23.96H0.990234V15.96H5.99023V23.96Z" fill="#707070"/>
<path d="M6 11.96H1V17.96H6V11.96Z" fill="#707070"/>
<path d="M24.05 8H16.05V0H17.05C18.9066 0 20.6871 0.737508 21.9998 2.05026C23.3126 3.36302 24.05 5.14348 24.05 7V8ZM18.05 6H21.9201C21.721 5.04858 21.2489 4.17582 20.5616 3.48849C19.8743 2.80117 19.0015 2.32908 18.05 2.13V6Z" fill="#707070"/>
<path d="M14.0402 16.9999C12.3032 16.8386 10.6891 16.0345 9.51398 14.7452C8.33889 13.456 7.6875 11.7744 7.6875 10.0299C7.6875 8.2855 8.33889 6.60392 9.51398 5.31464C10.6891 4.02535 12.3032 3.22127 14.0402 3.05994H15.0402V9.05994H21.0402V10.0599C21.0243 11.906 20.2799 13.6711 18.9688 14.9709C17.6578 16.2708 15.8863 17 14.0402 16.9999ZM13.0402 5.15994C12.1507 5.33466 11.3254 5.7479 10.6527 6.35544C9.97999 6.96297 9.48511 7.74193 9.22095 8.60904C8.95678 9.47615 8.93329 10.3988 9.15302 11.2782C9.37274 12.1576 9.82742 12.9608 10.4684 13.6017C11.1093 14.2427 11.9125 14.6973 12.7919 14.9171C13.6713 15.1368 14.5939 15.1133 15.461 14.8492C16.3281 14.585 17.1071 14.0901 17.7147 13.4174C18.3222 12.7446 18.7354 11.9194 18.9102 11.0299H13.0402V5.15994Z" fill="#707070"/>
</svg>
