<svg width="24" height="24" viewBox="0 0 246 246" fill="none" xmlns="http://www.w3.org/2000/svg">
<mask id="mask0_60661_4287" style="mask-type:alpha" maskUnits="userSpaceOnUse" x="0" y="0" width="246" height="246">
<rect width="245.37" height="245.37" fill="#A3A3A3"/>
</mask>
<g mask="url(#mask0_60661_4287)">
<path d="M122.685 224.922C108.542 224.922 95.2512 222.237 82.8124 216.866C70.3735 211.502 59.5533 204.219 50.352 195.018C41.1506 185.817 33.8679 174.996 28.5038 162.558C23.1329 150.119 20.4475 136.828 20.4475 122.685C20.4475 108.542 23.1329 95.2512 28.5038 82.8124C33.8679 70.3735 41.1506 59.5533 50.352 50.352C59.5533 41.1506 70.3735 33.8645 82.8124 28.4936C95.2512 23.1295 108.542 20.4475 122.685 20.4475C136.828 20.4475 150.119 23.1295 162.558 28.4936C174.996 33.8645 185.817 41.1506 195.018 50.352C204.219 59.5533 211.502 70.3735 216.866 82.8124C222.237 95.2512 224.922 108.542 224.922 122.685C224.922 136.828 222.237 150.119 216.866 162.558C211.502 174.996 204.219 185.817 195.018 195.018C185.817 204.219 174.996 211.502 162.558 216.866C150.119 222.237 136.828 224.922 122.685 224.922ZM122.685 204.475C145.518 204.475 164.858 196.552 180.705 180.705C196.552 164.858 204.475 145.518 204.475 122.685C204.475 99.8519 196.552 80.512 180.705 64.6652C164.858 48.8184 145.518 40.895 122.685 40.895C99.8519 40.895 80.512 48.8184 64.6652 64.6652C48.8184 80.512 40.895 99.8519 40.895 122.685C40.895 145.518 48.8184 164.858 64.6652 180.705C80.512 196.552 99.8519 204.475 122.685 204.475Z" fill="#A3A3A3"/>
<path d="M123.294 62C101.748 62 85.5 78.2478 85.5 99.7926C85.5 105.044 89.756 109.3 95.0072 109.3C100.257 109.3 104.514 105.044 104.514 99.7926C104.514 90.4455 110.32 81.0144 123.294 81.0144C134.785 81.0144 142.212 88.0957 142.212 99.0542C142.212 105.594 138.739 108.344 131.515 113.458C123.621 119.048 112.809 126.703 112.809 143.343C112.809 148.593 117.065 152.851 122.317 152.851C127.566 152.851 131.824 148.593 131.824 143.343C131.824 136.826 135.291 134.083 142.503 128.977C150.404 123.382 161.226 115.72 161.226 99.0542C161.226 77.5839 145.273 62 123.294 62Z" fill="#A3A3A3"/>
<path d="M122.093 160.363C115.57 160.363 110.282 165.65 110.282 172.174C110.282 178.696 115.57 183.985 122.093 183.985C128.615 183.985 133.904 178.696 133.904 172.174C133.904 165.65 128.615 160.363 122.093 160.363Z" fill="#A3A3A3"/>
</g>
</svg>
