<svg width="24" height="24" viewBox="0 0 24 24" fill="none" xmlns="http://www.w3.org/2000/svg">
<mask id="mask0_60664_4303" style="mask-type:alpha" maskUnits="userSpaceOnUse" x="0" y="0" width="24" height="24">
<rect width="24" height="24" fill="#757575"/>
</mask>
<g mask="url(#mask0_60664_4303)">
<path d="M12 22C10.6167 22 9.31666 21.7373 8.1 21.212C6.88333 20.6873 5.825 19.975 4.925 19.075C4.025 18.175 3.31266 17.1167 2.788 15.9C2.26266 14.6833 2 13.3833 2 12C2 10.6167 2.26266 9.31667 2.788 8.1C3.31266 6.88333 4.025 5.825 4.925 4.925C5.825 4.025 6.88333 3.31233 8.1 2.787C9.31666 2.26233 10.6167 2 12 2C13.3833 2 14.6833 2.26233 15.9 2.787C17.1167 3.31233 18.175 4.025 19.075 4.925C19.975 5.825 20.6873 6.88333 21.212 8.1C21.7373 9.31667 22 10.6167 22 12C22 13.3833 21.7373 14.6833 21.212 15.9C20.6873 17.1167 19.975 18.175 19.075 19.075C18.175 19.975 17.1167 20.6873 15.9 21.212C14.6833 21.7373 13.3833 22 12 22ZM12 20C14.2333 20 16.125 19.225 17.675 17.675C19.225 16.125 20 14.2333 20 12C20 9.76667 19.225 7.875 17.675 6.325C16.125 4.775 14.2333 4 12 4C9.76666 4 7.875 4.775 6.325 6.325C4.775 7.875 4 9.76667 4 12C4 14.2333 4.775 16.125 6.325 17.675C7.875 19.225 9.76666 20 12 20Z" fill="#757575"/>
<path d="M12.0596 6.06431C9.9521 6.06431 8.36288 7.65354 8.36288 9.76087C8.36288 10.2745 8.77917 10.6908 9.29279 10.6908C9.80626 10.6908 10.2227 10.2745 10.2227 9.76087C10.2227 8.84661 10.7906 7.92414 12.0596 7.92414C13.1835 7.92414 13.91 8.61677 13.91 9.68864C13.91 10.3283 13.5702 10.5973 12.8636 11.0975C12.0915 11.6443 11.034 12.393 11.034 14.0206C11.034 14.5341 11.4503 14.9505 11.964 14.9505C12.4774 14.9505 12.8939 14.5341 12.8939 14.0206C12.8939 13.3832 13.233 13.1149 13.9385 12.6154C14.7112 12.0681 15.7698 11.3188 15.7698 9.68864C15.7698 7.5886 14.2094 6.06431 12.0596 6.06431Z" fill="#757575"/>
<path d="M11.9421 15.6853C11.304 15.6853 10.7869 16.2025 10.7869 16.8406C10.7869 17.4785 11.304 17.9959 11.9421 17.9959C12.58 17.9959 13.0974 17.4785 13.0974 16.8406C13.0974 16.2025 12.58 15.6853 11.9421 15.6853Z" fill="#757575"/>
</g>
</svg>
