<svg width="24" height="24" viewBox="0 0 24 24" fill="none" xmlns="http://www.w3.org/2000/svg">
<path d="M20.01 24H10.01C9.74908 24.0016 9.49786 23.9011 9.31 23.72L5.59998 20.09H4.01001V18.09H6.01001C6.26748 18.091 6.51463 18.1913 6.70001 18.37L10.41 22H20.01C20.2752 22 20.5296 21.8946 20.7171 21.7071C20.9046 21.5196 21.01 21.2652 21.01 21C21.01 20.7348 20.9046 20.4804 20.7171 20.2929C20.5296 20.1054 20.2752 20 20.01 20H15.01V18H20.01C20.8057 18 21.5687 18.3161 22.1313 18.8787C22.694 19.4413 23.01 20.2044 23.01 21C23.01 21.7956 22.694 22.5587 22.1313 23.1213C21.5687 23.6839 20.8057 24 20.01 24Z" fill="#707070"/>
<path d="M13.01 21C12.6145 21.001 12.2227 20.9237 11.8571 20.7727C11.4916 20.6217 11.1595 20.3998 10.88 20.12L9.38 18.62L10.8 17.21L12.3 18.71C12.3932 18.8026 12.5038 18.8759 12.6254 18.9257C12.7469 18.9756 12.8771 19.001 13.0085 19.0005C13.1399 19.0001 13.27 18.9737 13.3912 18.923C13.5124 18.8723 13.6224 18.7982 13.715 18.705C13.8076 18.6117 13.8809 18.5012 13.9307 18.3796C13.9806 18.2581 14.006 18.1278 14.0056 17.9964C14.0051 17.8651 13.9788 17.735 13.928 17.6138C13.8773 17.4926 13.8033 17.3826 13.71 17.29L10.51 14.09H4.01001V12.09H10.92C11.0516 12.0892 11.1821 12.1144 11.3039 12.1642C11.4257 12.214 11.5366 12.2873 11.63 12.38L15.13 15.88C15.549 16.2995 15.8343 16.8339 15.9498 17.4155C16.0654 17.997 16.006 18.5998 15.7792 19.1477C15.5523 19.6955 15.1682 20.1639 14.6754 20.4935C14.1825 20.8232 13.603 20.9995 13.01 21Z" fill="#707070"/>
<path d="M3 22.08H0V20.08H1V13.08H0V11.08H3V22.08Z" fill="#707070"/>
<path d="M17 3H15V6H17V3Z" fill="#707070"/>
<path d="M20 0H18V4H20V0Z" fill="#707070"/>
<path d="M18.01 15C17.2189 15 16.4455 14.7654 15.7877 14.3259C15.1299 13.8863 14.6172 13.2616 14.3145 12.5307C14.0117 11.7998 13.9325 10.9956 14.0869 10.2196C14.2412 9.4437 14.6222 8.73097 15.1816 8.17156C15.741 7.61215 16.4537 7.23121 17.2296 7.07687C18.0056 6.92253 18.8098 7.00172 19.5407 7.30447C20.2716 7.60722 20.8964 8.11991 21.3359 8.7777C21.7754 9.4355 22.01 10.2089 22.01 11C22.01 12.0609 21.5886 13.0783 20.8385 13.8284C20.0883 14.5786 19.0709 15 18.01 15ZM18.01 8.99999C17.6145 8.99999 17.2278 9.1173 16.8989 9.33706C16.57 9.55682 16.3136 9.86916 16.1623 10.2346C16.0109 10.6001 15.9713 11.0022 16.0484 11.3902C16.1256 11.7781 16.3161 12.1345 16.5958 12.4142C16.8755 12.6939 17.2319 12.8844 17.6198 12.9616C18.0078 13.0387 18.41 12.9991 18.7754 12.8477C19.1409 12.6964 19.4532 12.44 19.6729 12.1111C19.8927 11.7822 20.01 11.3956 20.01 11C20.01 10.4696 19.7993 9.96085 19.4242 9.58578C19.0491 9.21071 18.5405 8.99999 18.01 8.99999Z" fill="#707070"/>
</svg>
