<svg width="24" height="24" viewBox="0 0 24 24" fill="none" xmlns="http://www.w3.org/2000/svg">
<path d="M10.42 19.9999H6.01001V15.59L19.01 2.58997L23.42 6.99994L10.42 19.9999ZM8.01001 17.9999H9.59003L20.59 6.99994L19.01 5.40991L8.01001 16.4099V17.9999Z" fill="#757575"/>
<path d="M8.71744 14.2881L7.30322 15.7023L10.3013 18.7004L11.7156 17.2862L8.71744 14.2881Z" fill="#757575"/>
<path d="M17 24H0V0H17V4H15V2H2V22H15V17H17V24Z" fill="#757575"/>
<path d="M12 4H4V6H12V4Z" fill="#757575"/>
<path d="M9 8H4V10H9V8Z" fill="#757575"/>
<path d="M6 12H4V14H6V12Z" fill="#757575"/>
</svg>
